<svg xmlns="http://www.w3.org/2000/svg" fill="none" viewBox="0 0 153 40">
  <rect width="40" height="40" fill="#02006F" rx="5"/>
  <circle cx="20" cy="20" r="10.5" stroke="#F6F4F4" stroke-width="3"/>
  <rect width="34" height="34" x="3" y="3" stroke="#F6F4F4" stroke-width="2" rx="2"/>
  <path fill="#F6F4F4" d="M34 12c0-1.1046.8954-2 2-2h4v4h-4c-1.1046 0-2-.8954-2-2Zm0 16c0-1.1046.8954-2 2-2h4v4h-4c-1.1046 0-2-.8954-2-2Z"/>
  <circle cx="20" cy="20" r="4" fill="#F4717B"/>
  <path fill="#F4717B" d="M132.146 13.192c-.381 0-.702-.1213-.962-.364-.243-.26-.364-.5807-.364-.962s.121-.6933.364-.936c.26-.26.581-.39.962-.39s.693.13.936.39c.26.2427.39.5547.39.936 0 .3813-.13.702-.39.962-.243.2427-.555.364-.936.364ZM130.976 29c-.451 0-.676-.1647-.676-.494v-.442c0-.3293.225-.494.676-.494h.806V17.43h-.806c-.451 0-.676-.1647-.676-.494v-.442c0-.3293.225-.494.676-.494h1.534c.225 0 .416.078.572.234.156.156.234.3467.234.572V27.57h.806c.451 0 .676.1647.676.494v.442c0 .3293-.225.494-.676.494h-3.146Zm18.425-1.43c.451 0 .676.1647.676.494v.442c0 .3293-.225.494-.676.494h-1.534c-.225 0-.416-.078-.572-.234-.156-.156-.234-.3467-.234-.572v-1.846c-.329.832-.91 1.5253-1.742 2.08-.814.5547-1.69.832-2.626.832-1.057 0-1.984-.2687-2.782-.806-.797-.5547-1.412-1.3347-1.846-2.34-.433-1.0227-.65-2.2013-.65-3.536 0-1.3867.226-2.5913.676-3.614.468-1.04 1.127-1.8373 1.976-2.392.85-.5547 1.846-.832 2.99-.832.78 0 1.526.1993 2.236.598.728.3987 1.318.936 1.768 1.612v-6.76h-.806c-.45 0-.676-.1647-.676-.494v-.442c0-.32934.226-.49401.676-.49401h1.586c.226 0 .408.078.546.234.139.15601.208.34671.208.57201V27.57h.806Zm-6.526.26c.763 0 1.465-.1993 2.106-.598.642-.3987 1.144-.936 1.508-1.612.382-.6933.572-1.4473.572-2.262v-3.874c-.554-.7627-1.17-1.3347-1.846-1.716-.676-.3987-1.386-.598-2.132-.598-1.334 0-2.357.4853-3.068 1.456-.693.9533-1.04 2.3487-1.04 4.186 0 1.5947.338 2.834 1.014 3.718.694.8667 1.656 1.3 2.886 1.3Z"/>
  <path fill="#02006F" d="M59.6919 13.92c-.6587 0-1.2133-.2167-1.664-.65-.4333-.4507-.65-1.0053-.65-1.664 0-.6587.2167-1.2047.65-1.63801.4507-.45066 1.0053-.676 1.664-.676.6587 0 1.2133.22534 1.664.676.4507.43331.676.97931.676 1.63801s-.2253 1.2133-.676 1.664c-.4507.4333-1.0053.65-1.664.65Zm1.066 2.08c.3467 0 .6327.1127.858.338.2253.2253.338.5113.338.858v12.506c0 1.7507-.416 3.1113-1.248 4.082-.832.9707-2.0107 1.456-3.536 1.456-1.1093 0-2.0193-.2773-2.73-.832-.728-.5373-1.092-1.2307-1.092-2.08 0-.572.182-1.04.546-1.404.364-.3467.8407-.52 1.43-.52.52 0 .962.1647 1.326.494.364.3467.572.78.624 1.3.3813-.104.6587-.3553.832-.754.1733-.3813.26-.962.26-1.742v-10.66h-.468c-.3467 0-.624-.078-.832-.234-.208-.1733-.312-.4333-.312-.78v-1.014c0-.3467.104-.598.312-.754.208-.1733.4767-.26.806-.26h2.886Zm9.3525 13.26c-2.0107 0-3.5793-.5807-4.706-1.742-1.1267-1.1787-1.69-2.808-1.69-4.888 0-2.132.5893-3.8133 1.768-5.044 1.1787-1.2307 2.7907-1.846 4.836-1.846 2.0107 0 3.5793.5893 4.706 1.768 1.1267 1.1613 1.69 2.7733 1.69 4.836 0 2.132-.5893 3.822-1.768 5.07-1.1787 1.2307-2.7907 1.846-4.836 1.846Zm.026-2.99c1.9413 0 2.912-1.3 2.912-3.9 0-2.4267-.9187-3.64-2.756-3.64-.936 0-1.6553.338-2.158 1.014-.5027.6587-.754 1.612-.754 2.86 0 1.196.234 2.106.702 2.73.468.624 1.1527.936 2.054.936Zm20.9284-.312c.3293 0 .598.0867.806.26.208.156.312.4073.312.754v1.014c0 .3467-.104.6067-.312.78-.208.156-.4767.234-.806.234h-2.886c-.3294 0-.6154-.1127-.858-.338-.2254-.2427-.338-.5287-.338-.858V26.4c-.3467.832-.8754 1.5167-1.586 2.054-.7107.5373-1.456.806-2.236.806-1.4214 0-2.5047-.4593-3.25-1.378-.7454-.9187-1.118-2.236-1.118-3.952v-4.888h-.468c-.7454 0-1.118-.338-1.118-1.014v-1.014c0-.676.3726-1.014 1.118-1.014h2.886c.3466 0 .6326.1127.858.338.2253.2253.338.5113.338.858v5.72c0 1.2653.1213 2.1407.364 2.626.26.4853.728.728 1.404.728.5026 0 .9706-.156 1.404-.468.4333-.312.7713-.728 1.014-1.248.26-.5373.39-1.1007.39-1.69v-3.822h-.468c-.3467 0-.624-.078-.832-.234-.208-.1733-.312-.4333-.312-.78v-1.014c0-.3467.104-.598.312-.754.208-.1733.4853-.26.832-.26h2.886c.3293 0 .6066.1127.832.338.2253.2253.338.5113.338.858v8.762h.494ZM111.706 16c.346 0 .624.0867.832.26.208.156.312.4073.312.754v1.014c0 .3467-.104.6067-.312.78-.208.156-.486.234-.832.234h-.468l-3.042 9.178c-.087.2427-.226.4333-.416.572-.174.1387-.382.208-.624.208h-1.326c-.243 0-.46-.0693-.65-.208-.174-.156-.304-.3467-.39-.572l-2.314-6.318-2.314 6.318c-.087.2427-.2256.4333-.4163.572-.1733.1387-.3813.208-.624.208h-1.326c-.26 0-.4853-.0693-.676-.208-.1733-.1387-.3033-.3293-.39-.572l-3.042-9.178h-.468c-.7453 0-1.118-.338-1.118-1.014v-1.014c0-.676.3727-1.014 1.118-1.014h4.654c.7453 0 1.118.338 1.118 1.014v1.014c0 .676-.3727 1.014-1.118 1.014h-.468l1.768 5.486 2.0283-5.564c.086-.2427.216-.4333.39-.572.19-.1387.407-.208.65-.208h1.092c.242 0 .45.0693.624.208.19.1387.338.3293.442.572l2.002 5.538 1.768-5.46h-.468c-.746 0-1.118-.338-1.118-1.014v-1.014c0-.676.372-1.014 1.118-1.014h4.004Z"/>
  <path fill="#F4717B" d="M125 23c0 2.2091-1.791 4-4 4s-4-1.7909-4-4c0-2.2091 1.791-4 4-4s4 1.7909 4 4Z"/>
</svg>
